<?xml version="1.0" encoding="utf-8"?>
<!-- Generator: Adobe Illustrator 19.0.0, SVG Export Plug-In . SVG Version: 6.00 Build 0)  -->
<svg version="1.1" id="Layer_1" xmlns="http://www.w3.org/2000/svg" xmlns:xlink="http://www.w3.org/1999/xlink" x="0px" y="0px"
	 viewBox="0 0 512 512" style="enable-background:new 0 0 512 512;" xml:space="preserve">
<style type="text/css">
	.st0{display:none;fill:#F1F2F2;}
	.st1{fill:none;}
	.st2{display:none;}
	.st3{display:inline;fill:#F8981D;}
	.st4{fill:#FFFFFF;}
</style>
<path class="st0" d="M-28.9,431c-18.1,0-32.9-14.7-32.9-32.9c0-5.1,1.1-9.8,3.2-14.1h-0.1c-1.5,2.4-2.6,4.9-3.2,7.6
	c0.1,1.4-0.4,2.4-0.8,2.9c-0.7,0.9-1.9,1.5-3.2,1.5c-2.4,0-5.1-1.8-5.1-4.4V391l0.2-0.5c0.8-2.3,1.6-4.5,2.5-6.6h-85.8v-15.1h-1.9
	V207.4h457.5v157.8h10.3l0.2-131.5l3.4,0.5c0.4,0.1,36.5,5,72.7,5c3.8,0,7.4-0.1,10.9-0.2c0.9,0,1.7,0,2.6,0c38,0,42.2,26.8,42.6,30
	l11.6,51.4v56.3l-1.4,0.9c0,0-0.7,0.4-1.8,1l1.4,24.7l-0.1,0.4c-0.3,1.3-3.1,12.3-10.9,13.8l-0.3,0.1h-0.3
	c-11.6,0-21.4,1.9-28.5,3.4c-4.3,0.9-7.6,1.5-10.1,1.5c0,0,0,0,0,0c-6,0-6.4-4.2-6.4-5.5v-0.1l0-0.1c0.2-2.1,0.4-4.1,0.5-6.2
	c-4.9,12-16.7,20.4-30.4,20.4c-15.8,0-29.1-11.2-32.2-26.2l-0.8-0.5v8.4l-133.4,0.6V384h-88.1c0.9,2.1,1.7,4.3,2.5,6.7l0.2,0.5v0.5
	c0,2.6-2.7,4.4-5.1,4.4c-1.3,0-2.4-0.5-3.2-1.5c-0.4-0.5-0.9-1.4-0.8-2.9c-0.6-2.7-1.7-5.3-3.3-7.7h-2.4c2,4.3,3.2,9,3.2,14.1
	c0,18.1-14.7,32.9-32.9,32.9s-32.9-14.7-32.9-32.9c0-4.9,1.1-9.5,3-13.6c-1.5,2.3-2.5,4.8-3,7.3c0.1,1.4-0.4,2.4-0.8,2.9
	c-0.7,0.9-1.9,1.5-3.2,1.5c-2.4,0-5.1-1.8-5.1-4.4v-0.5l0.2-0.5c0.8-2.4,1.6-4.6,2.5-6.7H12.9c0.9,2,1.7,4.2,2.5,6.6l0.2,0.5v0.5
	c0,2.6-2.7,4.4-5.1,4.4c-1.3,0-2.4-0.5-3.2-1.5c-0.4-0.5-0.9-1.4-0.8-2.9c-0.6-2.7-1.6-5.2-3.2-7.6H0.7c2,4.3,3.2,9.1,3.2,14.1
	C3.9,416.3-10.8,431-28.9,431z M-28.9,385.9c-6.8,0-12.2,5.5-12.2,12.2c0,6.8,5.5,12.2,12.2,12.2s12.2-5.5,12.2-12.2
	C-16.7,391.4-22.2,385.9-28.9,385.9z M71,385.8c-6.8,0-12.2,5.5-12.2,12.2c0,6.8,5.5,12.2,12.2,12.2c6.8,0,12.2-5.5,12.2-12.2
	C83.3,391.3,77.8,385.8,71,385.8z M446.3,315.2l-8.9-41.8l-3.7-0.2v42H446.3z M422.9,314.4v-37.3l-49.5-3.8v37.3L422.9,314.4z"/>
<g>
	<g>
		<path class="st1" d="M512,448c0,35.2-28.8,64-64,64H64c-35.2,0-64-28.8-64-64V64C0,28.8,28.8,0,64,0h384c35.2,0,64,28.8,64,64V448
			z"/>
	</g>
	<g class="st2">
		<path class="st3" d="M512,448c0,35.2-28.8,64-64,64H64c-35.2,0-64-28.8-64-64V64C0,28.8,28.8,0,64,0h384c35.2,0,64,28.8,64,64V448
			z"/>
	</g>
	<g>
		<g>
			<g>
				<path class="st4" d="M41.7,57.5h-249.1c-18,0-32.6,14.6-32.6,32.6v212.8c0,17,13.1,31,29.7,32.4v12.5h-8.2
					c-5.2,0-9.5,4.2-9.5,9.5v37.1c0,5.2,4.2,9.5,9.5,9.5h16.5V448c0,5.2,4.2,9.5,9.5,9.5h36.3c5.2,0,9.5-4.2,9.5-9.5v-44.1H-19V448
					c0,5.2,4.2,9.5,9.5,9.5h36.3c5.2,0,9.5-4.2,9.5-9.5v-44.1h16.5c5.2,0,9.5-4.2,9.5-9.5v-37.1c0-5.2-4.2-9.5-9.5-9.5h-8.2v-12.5
					c16.6-1.5,29.7-15.5,29.7-32.4V90.1C74.2,72.1,59.6,57.5,41.7,57.5L41.7,57.5z M-165.8,438.5h-17.3v-34.6h17.3V438.5z
					 M17.3,438.5H0v-34.6h17.3V438.5z M25.6,251.3h-216.9v-86.6H25.6V251.3z M43.3,384.9h-252.4v-18.1H43.3V384.9z M-191.3,347.8
					v-77.5H25.6v77.5H-191.3z M55.3,302.9c0,6.5-4.6,12-10.7,13.3V155.2c0-5.2-4.2-9.5-9.5-9.5h-235.9c-5.2,0-9.5,4.2-9.5,9.5v160.9
					c-6.1-1.3-10.7-6.8-10.7-13.3V90.1c0-7.5,6.1-13.6,13.6-13.6H41.7c7.5,0,13.6,6.1,13.6,13.6V302.9z M55.3,302.9"/>
			</g>
			<path class="st4" d="M-157.1,286.8c-13.9,0-25.2,11.3-25.2,25.2c0,13.9,11.3,25.2,25.2,25.2c13.9,0,25.2-11.3,25.2-25.2
				C-132,298.1-143.2,286.8-157.1,286.8L-157.1,286.8z M-157.1,318.1c-3.4,0-6.2-2.8-6.2-6.2c0-3.4,2.8-6.2,6.2-6.2
				c3.4,0,6.2,2.8,6.2,6.2C-150.9,315.3-153.7,318.1-157.1,318.1L-157.1,318.1z M-157.1,318.1"/>
			<path class="st4" d="M-8.7,286.8c-13.9,0-25.2,11.3-25.2,25.2c0,13.9,11.3,25.2,25.2,25.2c13.9,0,25.2-11.3,25.2-25.2
				C16.5,298.1,5.2,286.8-8.7,286.8L-8.7,286.8z M-8.7,318.1c-3.4,0-6.2-2.8-6.2-6.2c0-3.4,2.8-6.2,6.2-6.2c3.4,0,6.2,2.8,6.2,6.2
				C-2.5,315.3-5.2,318.1-8.7,318.1L-8.7,318.1z M-8.7,318.1"/>
		</g>
		<g>
			<g>
				<path class="st4" d="M380.5,54.5H131.5c-18,0-32.6,14.6-32.6,32.6v212.8c0,17,13.1,31,29.7,32.4v12.5h-8.2
					c-5.2,0-9.5,4.2-9.5,9.5v37.1c0,5.2,4.2,9.5,9.5,9.5h16.5V445c0,5.2,4.2,9.5,9.5,9.5h36.3c5.2,0,9.5-4.2,9.5-9.5v-44.1h127.8
					V445c0,5.2,4.2,9.5,9.5,9.5h36.3c5.2,0,9.5-4.2,9.5-9.5v-44.1h16.5c5.2,0,9.5-4.2,9.5-9.5v-37.1c0-5.2-4.2-9.5-9.5-9.5h-8.2
					v-12.5c16.6-1.5,29.7-15.5,29.7-32.4V87.1C413.1,69.1,398.5,54.5,380.5,54.5L380.5,54.5z M173.1,435.5h-17.3v-34.6h17.3V435.5z
					 M356.2,435.5h-17.3v-34.6h17.3V435.5z M364.5,248.3H147.5v-86.6h216.9V248.3z M382.2,381.9H129.8v-18.1h252.4V381.9z
					 M147.5,344.8v-77.5h216.9v77.5H147.5z M394.1,299.9c0,6.5-4.6,12-10.7,13.3V152.2c0-5.2-4.2-9.5-9.5-9.5H138.1
					c-5.2,0-9.5,4.2-9.5,9.5v160.9c-6.1-1.3-10.7-6.8-10.7-13.3V87.1c0-7.5,6.1-13.6,13.6-13.6h249.1c7.5,0,13.6,6.1,13.6,13.6
					V299.9z M394.1,299.9"/>
			</g>
			<path class="st4" d="M181.8,283.8c-13.9,0-25.2,11.3-25.2,25.2c0,13.9,11.3,25.2,25.2,25.2c13.9,0,25.2-11.3,25.2-25.2
				C206.9,295.1,195.6,283.8,181.8,283.8L181.8,283.8z M181.8,315.1c-3.4,0-6.2-2.8-6.2-6.2c0-3.4,2.8-6.2,6.2-6.2
				c3.4,0,6.2,2.8,6.2,6.2C188,312.3,185.2,315.1,181.8,315.1L181.8,315.1z M181.8,315.1"/>
			<path class="st4" d="M330.2,283.8c-13.9,0-25.2,11.3-25.2,25.2c0,13.9,11.3,25.2,25.2,25.2c13.9,0,25.2-11.3,25.2-25.2
				C355.4,295.1,344.1,283.8,330.2,283.8L330.2,283.8z M330.2,315.1c-3.4,0-6.2-2.8-6.2-6.2c0-3.4,2.8-6.2,6.2-6.2
				c3.4,0,6.2,2.8,6.2,6.2C336.4,312.3,333.6,315.1,330.2,315.1L330.2,315.1z M330.2,315.1"/>
		</g>
		<g>
			<g>
				<path class="st4" d="M719.7,54.5H470.6c-18,0-32.6,14.6-32.6,32.6v212.8c0,17,13.1,31,29.7,32.4v12.5h-8.2
					c-5.2,0-9.5,4.2-9.5,9.5v37.1c0,5.2,4.2,9.5,9.5,9.5h16.5V445c0,5.2,4.2,9.5,9.5,9.5h36.3c5.2,0,9.5-4.2,9.5-9.5v-44.1H659V445
					c0,5.2,4.2,9.5,9.5,9.5h36.3c5.2,0,9.5-4.2,9.5-9.5v-44.1h16.5c5.2,0,9.5-4.2,9.5-9.5v-37.1c0-5.2-4.2-9.5-9.5-9.5h-8.2v-12.5
					c16.6-1.5,29.7-15.5,29.7-32.4V87.1C752.2,69.1,737.6,54.5,719.7,54.5L719.7,54.5z M512.2,435.5h-17.3v-34.6h17.3V435.5z
					 M695.3,435.5H678v-34.6h17.3V435.5z M703.6,248.3H486.7v-86.6h216.9V248.3z M721.3,381.9H468.9v-18.1h252.4V381.9z
					 M486.7,344.8v-77.5h216.9v77.5H486.7z M733.3,299.9c0,6.5-4.6,12-10.7,13.3V152.2c0-5.2-4.2-9.5-9.5-9.5H477.2
					c-5.2,0-9.5,4.2-9.5,9.5v160.9c-6.1-1.3-10.7-6.8-10.7-13.3V87.1c0-7.5,6.1-13.6,13.6-13.6h249.1c7.5,0,13.6,6.1,13.6,13.6
					V299.9z M733.3,299.9"/>
			</g>
			<path class="st4" d="M520.9,283.8c-13.9,0-25.2,11.3-25.2,25.2c0,13.9,11.3,25.2,25.2,25.2c13.9,0,25.2-11.3,25.2-25.2
				C546,295.1,534.8,283.8,520.9,283.8L520.9,283.8z M520.9,315.1c-3.4,0-6.2-2.8-6.2-6.2c0-3.4,2.8-6.2,6.2-6.2
				c3.4,0,6.2,2.8,6.2,6.2C527.1,312.3,524.3,315.1,520.9,315.1L520.9,315.1z M520.9,315.1"/>
			<path class="st4" d="M669.3,283.8c-13.9,0-25.2,11.3-25.2,25.2c0,13.9,11.3,25.2,25.2,25.2c13.9,0,25.2-11.3,25.2-25.2
				C694.5,295.1,683.2,283.8,669.3,283.8L669.3,283.8z M669.3,315.1c-3.4,0-6.2-2.8-6.2-6.2c0-3.4,2.8-6.2,6.2-6.2
				c3.4,0,6.2,2.8,6.2,6.2C675.5,312.3,672.8,315.1,669.3,315.1L669.3,315.1z M669.3,315.1"/>
		</g>
	</g>
</g>
<path class="st0" d="M44.1,381c3.7-5.8,9.3-10.4,15.8-12.8h-77.9c6.6,2.4,12.1,7,15.8,12.8h6.8c2.1,2.9,3.9,6.4,4.6,10.5
	c-0.6,2.4,3,1.2,3,0c-1.4-4.2-2.9-7.7-4.3-10.5h28.2c-1.5,2.8-3,6.3-4.4,10.7c0,1.2,3.7,2.4,3,0c0.8-4.2,2.6-7.7,4.8-10.7H44.1z
	 M-55.8,381c3.7-5.8,9.3-10.4,15.8-12.8h-111.1V381h87.5c-1.4,2.8-2.9,6.3-4.3,10.5c0,1.2,3.7,2.4,3,0c0.8-4.1,2.5-7.6,4.7-10.5
	H-55.8z M298.5,210.4H-153v155.5h451.5V210.4z M452.7,320.6l-11.6-51.2c0,0-1.8-28.7-42.1-27.4c-40.2,1.2-84.1-4.9-84.1-4.9
	l-0.1,131.1H82.1c6.6,2.4,12.1,7,15.8,12.8h6.7c2.2,3,4,6.5,4.8,10.7c-0.6,2.4,3,1.2,3,0c-1.4-4.3-2.9-7.8-4.4-10.7h95.9v29.3
	l127.4-0.6v-15.8c0,3.3,1.7,6.1,4.3,7.7c-0.1-1.1-0.2-2.3-0.2-3.4c0-17.6,14.3-31.9,31.9-31.9c17.6,0,31.9,14.3,31.9,31.9
	c0,1.3-0.1,2.6-0.2,3.8c0.8-0.4,1.5-1,2.2-1.6c0,4.9-0.3,10.5-0.9,16.7c0,6.7,16.5-2.4,42.1-2.4c6.1-1.2,8.5-11.6,8.5-11.6
	l-1.5-26.2c2.1-1.1,3.3-1.8,3.3-1.8V320.6z M425.9,317.6l-55.5-4.3V270l55.5,4.3V317.6z M430.7,318.2V270l9.1,0.5l10.2,47.6H430.7z
	 M-28.9,368.3c-16.5,0-29.9,13.4-29.9,29.9c0,16.5,13.4,29.9,29.9,29.9s29.9-13.4,29.9-29.9C0.9,381.6-12.4,368.3-28.9,368.3z
	 M-28.9,413.4c-8.4,0-15.2-6.8-15.2-15.2c0-8.4,6.8-15.2,15.2-15.2c8.4,0,15.2,6.8,15.2,15.2C-13.7,406.5-20.5,413.4-28.9,413.4z
	 M367.3,368.2c-16.5,0-29.9,13.4-29.9,29.9c0,16.5,13.4,29.9,29.9,29.9c16.5,0,29.9-13.4,29.9-29.9
	C397.2,381.6,383.8,368.2,367.3,368.2z M71,368.2c-16.5,0-29.9,13.4-29.9,29.9c0,16.5,13.4,29.9,29.9,29.9
	c16.5,0,29.9-13.4,29.9-29.9C100.9,381.6,87.5,368.2,71,368.2z M71,413.3c-8.4,0-15.2-6.8-15.2-15.2c0-8.4,6.8-15.2,15.2-15.2
	c8.4,0,15.2,6.8,15.2,15.2C86.3,406.5,79.5,413.3,71,413.3z"/>
</svg>
